<mxfile host="app.diagrams.net" agent="Mozilla/5.0 (Windows NT 10.0; Win64; x64; rv:136.0) Gecko/20100101 Firefox/136.0" version="26.1.0">
  <diagram name="Página-1" id="FYqE2HnnL7KeZkKqGwRa">
    <mxGraphModel dx="2389" dy="826" grid="1" gridSize="10" guides="1" tooltips="1" connect="1" arrows="1" fold="1" page="1" pageScale="1" pageWidth="827" pageHeight="1169" math="0" shadow="0">
      <root>
        <mxCell id="0" />
        <mxCell id="1" parent="0" />
        <mxCell id="aw-QQpi0shijWvfdBHul-3" value="Ejercicio 1:Una empresa de construcció desitja conèixer en tot moment la casa que estan treballant el seus empleats. Se&lt;br&gt;sap que en cada casa pot haver varis treballadors i no tots tenen perquè estar ocupats a cada instant. Mostra el&lt;br&gt;diagrama ER." style="text;align=center;fontStyle=1;verticalAlign=middle;spacingLeft=3;spacingRight=3;strokeColor=none;rotatable=0;points=[[0,0.5],[1,0.5]];portConstraint=eastwest;html=1;" vertex="1" parent="1">
          <mxGeometry x="184" y="40" width="460" height="50" as="geometry" />
        </mxCell>
        <mxCell id="aw-QQpi0shijWvfdBHul-4" value="EMPLEADO" style="html=1;whiteSpace=wrap;" vertex="1" parent="1">
          <mxGeometry x="92" y="315" width="74" height="40" as="geometry" />
        </mxCell>
        <mxCell id="aw-QQpi0shijWvfdBHul-5" value="categoria" style="ellipse;whiteSpace=wrap;html=1;" vertex="1" parent="1">
          <mxGeometry x="20" y="210" width="69" height="30" as="geometry" />
        </mxCell>
        <mxCell id="aw-QQpi0shijWvfdBHul-8" value="" style="edgeStyle=orthogonalEdgeStyle;rounded=0;orthogonalLoop=1;jettySize=auto;html=1;endArrow=none;startFill=0;" edge="1" parent="1" source="aw-QQpi0shijWvfdBHul-7" target="aw-QQpi0shijWvfdBHul-4">
          <mxGeometry relative="1" as="geometry" />
        </mxCell>
        <mxCell id="aw-QQpi0shijWvfdBHul-16" value="&lt;div&gt;1:N&lt;/div&gt;" style="edgeLabel;html=1;align=center;verticalAlign=middle;resizable=0;points=[];" vertex="1" connectable="0" parent="aw-QQpi0shijWvfdBHul-8">
          <mxGeometry x="0.129" y="4" relative="1" as="geometry">
            <mxPoint y="-19" as="offset" />
          </mxGeometry>
        </mxCell>
        <mxCell id="aw-QQpi0shijWvfdBHul-10" style="edgeStyle=orthogonalEdgeStyle;rounded=0;orthogonalLoop=1;jettySize=auto;html=1;strokeColor=default;strokeWidth=1;endArrow=none;startFill=0;" edge="1" parent="1" source="aw-QQpi0shijWvfdBHul-7" target="aw-QQpi0shijWvfdBHul-9">
          <mxGeometry relative="1" as="geometry" />
        </mxCell>
        <mxCell id="aw-QQpi0shijWvfdBHul-17" value="0:1" style="edgeLabel;html=1;align=center;verticalAlign=middle;resizable=0;points=[];" vertex="1" connectable="0" parent="aw-QQpi0shijWvfdBHul-10">
          <mxGeometry x="0.0167" y="-4" relative="1" as="geometry">
            <mxPoint y="-19" as="offset" />
          </mxGeometry>
        </mxCell>
        <mxCell id="aw-QQpi0shijWvfdBHul-7" value="TRABAJA" style="rhombus;whiteSpace=wrap;html=1;" vertex="1" parent="1">
          <mxGeometry x="290" y="295" width="190" height="80" as="geometry" />
        </mxCell>
        <mxCell id="aw-QQpi0shijWvfdBHul-9" value="CASA" style="rounded=0;whiteSpace=wrap;html=1;strokeColor=default;" vertex="1" parent="1">
          <mxGeometry x="600" y="317.5" width="80" height="35" as="geometry" />
        </mxCell>
        <mxCell id="aw-QQpi0shijWvfdBHul-15" style="rounded=0;orthogonalLoop=1;jettySize=auto;html=1;endArrow=none;startFill=0;" edge="1" parent="1" source="aw-QQpi0shijWvfdBHul-11" target="aw-QQpi0shijWvfdBHul-4">
          <mxGeometry relative="1" as="geometry" />
        </mxCell>
        <mxCell id="aw-QQpi0shijWvfdBHul-11" value="&lt;u&gt;DNI&lt;/u&gt;" style="ellipse;whiteSpace=wrap;html=1;" vertex="1" parent="1">
          <mxGeometry x="134" y="215" width="50" height="20" as="geometry" />
        </mxCell>
        <mxCell id="aw-QQpi0shijWvfdBHul-12" value="Nombre" style="ellipse;whiteSpace=wrap;html=1;" vertex="1" parent="1">
          <mxGeometry x="-20" y="320" width="80" height="30" as="geometry" />
        </mxCell>
        <mxCell id="aw-QQpi0shijWvfdBHul-13" value="" style="endArrow=none;html=1;rounded=0;exitX=0;exitY=0.5;exitDx=0;exitDy=0;" edge="1" parent="1" source="aw-QQpi0shijWvfdBHul-4" target="aw-QQpi0shijWvfdBHul-12">
          <mxGeometry width="50" height="50" relative="1" as="geometry">
            <mxPoint x="390" y="450" as="sourcePoint" />
            <mxPoint x="440" y="400" as="targetPoint" />
          </mxGeometry>
        </mxCell>
        <mxCell id="aw-QQpi0shijWvfdBHul-14" value="" style="endArrow=none;html=1;rounded=0;" edge="1" parent="1" source="aw-QQpi0shijWvfdBHul-4" target="aw-QQpi0shijWvfdBHul-5">
          <mxGeometry width="50" height="50" relative="1" as="geometry">
            <mxPoint x="390" y="450" as="sourcePoint" />
            <mxPoint x="440" y="400" as="targetPoint" />
          </mxGeometry>
        </mxCell>
        <mxCell id="aw-QQpi0shijWvfdBHul-19" value="&lt;div&gt;&lt;b&gt;EMPLEADO&lt;/b&gt; (dni_empleado, edad, sueldo,direccion)&lt;/div&gt;&lt;div align=&quot;left&quot;&gt;on (direccion) referencia a &lt;b&gt;CASA&lt;/b&gt;&lt;/div&gt;&lt;div align=&quot;left&quot;&gt;&lt;b&gt;CASA&lt;/b&gt;(direccion, empleados, planta)&lt;/div&gt;" style="text;html=1;align=center;verticalAlign=middle;resizable=0;points=[];autosize=1;strokeColor=none;fillColor=none;" vertex="1" parent="1">
          <mxGeometry x="9" y="440" width="300" height="60" as="geometry" />
        </mxCell>
        <mxCell id="aw-QQpi0shijWvfdBHul-21" style="edgeStyle=orthogonalEdgeStyle;rounded=0;orthogonalLoop=1;jettySize=auto;html=1;endArrow=none;startFill=0;" edge="1" parent="1" source="aw-QQpi0shijWvfdBHul-20" target="aw-QQpi0shijWvfdBHul-9">
          <mxGeometry relative="1" as="geometry" />
        </mxCell>
        <mxCell id="aw-QQpi0shijWvfdBHul-20" value="&lt;u&gt;direccion&lt;/u&gt;" style="ellipse;whiteSpace=wrap;html=1;" vertex="1" parent="1">
          <mxGeometry x="600" y="440" width="80" height="30" as="geometry" />
        </mxCell>
        <mxCell id="aw-QQpi0shijWvfdBHul-24" value="" style="edgeStyle=orthogonalEdgeStyle;rounded=0;orthogonalLoop=1;jettySize=auto;html=1;endArrow=none;startFill=0;" edge="1" parent="1" source="aw-QQpi0shijWvfdBHul-22" target="aw-QQpi0shijWvfdBHul-9">
          <mxGeometry relative="1" as="geometry" />
        </mxCell>
        <mxCell id="aw-QQpi0shijWvfdBHul-22" value="atributo" style="ellipse;whiteSpace=wrap;html=1;" vertex="1" parent="1">
          <mxGeometry x="600" y="180" width="80" height="30" as="geometry" />
        </mxCell>
        <mxCell id="aw-QQpi0shijWvfdBHul-26" style="edgeStyle=orthogonalEdgeStyle;rounded=0;orthogonalLoop=1;jettySize=auto;html=1;endArrow=none;startFill=0;" edge="1" parent="1" source="aw-QQpi0shijWvfdBHul-23" target="aw-QQpi0shijWvfdBHul-9">
          <mxGeometry relative="1" as="geometry" />
        </mxCell>
        <mxCell id="aw-QQpi0shijWvfdBHul-23" value="atributo" style="ellipse;whiteSpace=wrap;html=1;" vertex="1" parent="1">
          <mxGeometry x="740" y="317.5" width="80" height="35" as="geometry" />
        </mxCell>
        <mxCell id="aw-QQpi0shijWvfdBHul-28" value="&lt;h1 style=&quot;margin-top: 0px;&quot;&gt;&lt;font style=&quot;font-size: 14px;&quot;&gt;Ejercicio 2&lt;/font&gt;&lt;/h1&gt;&lt;p&gt;Una escola desitja saber les assignatures que imparteix cada professor. El cap d’estudis ha disposat que cada professor pot donar més d’una assignatura i una assignatura pot ser impartida per varis professores. Mostra el diagrama ER.&lt;/p&gt;" style="text;html=1;whiteSpace=wrap;overflow=hidden;rounded=0;" vertex="1" parent="1">
          <mxGeometry x="30" y="560" width="730" height="90" as="geometry" />
        </mxCell>
        <mxCell id="aw-QQpi0shijWvfdBHul-34" style="edgeStyle=orthogonalEdgeStyle;rounded=0;orthogonalLoop=1;jettySize=auto;html=1;endArrow=none;startFill=0;" edge="1" parent="1" source="aw-QQpi0shijWvfdBHul-29" target="aw-QQpi0shijWvfdBHul-32">
          <mxGeometry relative="1" as="geometry" />
        </mxCell>
        <mxCell id="aw-QQpi0shijWvfdBHul-44" value="1,N" style="edgeLabel;html=1;align=center;verticalAlign=middle;resizable=0;points=[];" vertex="1" connectable="0" parent="aw-QQpi0shijWvfdBHul-34">
          <mxGeometry x="-0.0316" y="-1" relative="1" as="geometry">
            <mxPoint x="-8" y="-14" as="offset" />
          </mxGeometry>
        </mxCell>
        <mxCell id="aw-QQpi0shijWvfdBHul-29" value="ASIGNATURA" style="rounded=0;whiteSpace=wrap;html=1;" vertex="1" parent="1">
          <mxGeometry x="630" y="830" width="110" height="30" as="geometry" />
        </mxCell>
        <mxCell id="aw-QQpi0shijWvfdBHul-33" style="edgeStyle=orthogonalEdgeStyle;rounded=0;orthogonalLoop=1;jettySize=auto;html=1;endArrow=none;startFill=0;" edge="1" parent="1" source="aw-QQpi0shijWvfdBHul-30" target="aw-QQpi0shijWvfdBHul-32">
          <mxGeometry relative="1" as="geometry" />
        </mxCell>
        <mxCell id="aw-QQpi0shijWvfdBHul-45" value="1,N" style="edgeLabel;html=1;align=center;verticalAlign=middle;resizable=0;points=[];" vertex="1" connectable="0" parent="aw-QQpi0shijWvfdBHul-33">
          <mxGeometry x="-0.0959" y="2" relative="1" as="geometry">
            <mxPoint y="-13" as="offset" />
          </mxGeometry>
        </mxCell>
        <mxCell id="aw-QQpi0shijWvfdBHul-30" value="PROFESOR" style="rounded=0;whiteSpace=wrap;html=1;" vertex="1" parent="1">
          <mxGeometry x="94" y="830" width="90" height="30" as="geometry" />
        </mxCell>
        <mxCell id="aw-QQpi0shijWvfdBHul-32" value="IMPARTE" style="rhombus;whiteSpace=wrap;html=1;" vertex="1" parent="1">
          <mxGeometry x="330" y="820" width="110" height="50" as="geometry" />
        </mxCell>
        <mxCell id="aw-QQpi0shijWvfdBHul-36" style="edgeStyle=orthogonalEdgeStyle;rounded=0;orthogonalLoop=1;jettySize=auto;html=1;" edge="1" parent="1" source="aw-QQpi0shijWvfdBHul-35" target="aw-QQpi0shijWvfdBHul-30">
          <mxGeometry relative="1" as="geometry" />
        </mxCell>
        <mxCell id="aw-QQpi0shijWvfdBHul-35" value="&lt;u&gt;Nombre&lt;/u&gt;" style="ellipse;whiteSpace=wrap;html=1;" vertex="1" parent="1">
          <mxGeometry x="102" y="690" width="74" height="30" as="geometry" />
        </mxCell>
        <mxCell id="aw-QQpi0shijWvfdBHul-39" style="edgeStyle=orthogonalEdgeStyle;rounded=0;orthogonalLoop=1;jettySize=auto;html=1;" edge="1" parent="1" source="aw-QQpi0shijWvfdBHul-38" target="aw-QQpi0shijWvfdBHul-29">
          <mxGeometry relative="1" as="geometry" />
        </mxCell>
        <mxCell id="aw-QQpi0shijWvfdBHul-38" value="Nombre" style="ellipse;whiteSpace=wrap;html=1;" vertex="1" parent="1">
          <mxGeometry x="635" y="740" width="100" height="35" as="geometry" />
        </mxCell>
        <mxCell id="aw-QQpi0shijWvfdBHul-42" style="edgeStyle=orthogonalEdgeStyle;rounded=0;orthogonalLoop=1;jettySize=auto;html=1;" edge="1" parent="1" source="aw-QQpi0shijWvfdBHul-41" target="aw-QQpi0shijWvfdBHul-29">
          <mxGeometry relative="1" as="geometry" />
        </mxCell>
        <mxCell id="aw-QQpi0shijWvfdBHul-41" value="Clase" style="ellipse;whiteSpace=wrap;html=1;" vertex="1" parent="1">
          <mxGeometry x="642.5" y="910" width="85" height="30" as="geometry" />
        </mxCell>
        <mxCell id="aw-QQpi0shijWvfdBHul-46" value="&lt;div&gt;PROFESOR (dni_prof,sueldo,nss,direccion)&lt;/div&gt;&lt;div&gt;ASIGNATURA(id_asignatura, nombre, yada)&lt;/div&gt;&lt;div&gt;IMPARTE(nompre,id_asignatura)&lt;/div&gt;&lt;div&gt;on (nombre) referencia a PROFESOR&lt;/div&gt;&lt;div&gt;on (id_asignatura) referencia a ASIGNATURA&lt;/div&gt;&lt;div&gt;&lt;br&gt;&lt;/div&gt;" style="text;html=1;align=left;verticalAlign=middle;whiteSpace=wrap;rounded=0;horizontal=1;" vertex="1" parent="1">
          <mxGeometry x="9" y="900" width="346" height="90" as="geometry" />
        </mxCell>
      </root>
    </mxGraphModel>
  </diagram>
</mxfile>
